<svg width="24" height="24" viewBox="0 0 24 24" fill="none" xmlns="http://www.w3.org/2000/svg">
<path d="M17.3333 9.92285H6.66667C5.19391 9.92285 4 11.1627 4 12.6921V18.2305C4 19.7599 5.19391 20.9998 6.66667 20.9998H17.3333C18.8061 20.9998 20 19.7599 20 18.2305V12.6921C20 11.1627 18.8061 9.92285 17.3333 9.92285Z" stroke="black" stroke-width="1.5" stroke-linecap="round" stroke-linejoin="round"/>
<path d="M7.99984 16.8464C8.73622 16.8464 9.33317 16.2265 9.33317 15.4618C9.33317 14.6971 8.73622 14.0771 7.99984 14.0771C7.26346 14.0771 6.6665 14.6971 6.6665 15.4618C6.6665 16.2265 7.26346 16.8464 7.99984 16.8464Z" stroke="black" stroke-width="1.2" stroke-linecap="round" stroke-linejoin="round"/>
<path d="M15.9998 16.8464C16.7362 16.8464 17.3332 16.2265 17.3332 15.4618C17.3332 14.6971 16.7362 14.0771 15.9998 14.0771C15.2635 14.0771 14.6665 14.6971 14.6665 15.4618C14.6665 16.2265 15.2635 16.8464 15.9998 16.8464Z" stroke="black" stroke-width="1.2" stroke-linecap="round" stroke-linejoin="round"/>
<path d="M12 4V9.53846" stroke="black" stroke-width="1.5" stroke-linecap="round" stroke-linejoin="round"/>
<path d="M11.9998 5.76923C12.7362 5.76923 13.3332 5.14932 13.3332 4.38462C13.3332 3.61991 12.7362 3 11.9998 3C11.2635 3 10.6665 3.61991 10.6665 4.38462C10.6665 5.14932 11.2635 5.76923 11.9998 5.76923Z" fill="black" stroke="black" stroke-width="1.5" stroke-linecap="round" stroke-linejoin="round"/>
</svg>
