<svg width="24" height="24" viewBox="0 0 24 24" fill="none" xmlns="http://www.w3.org/2000/svg">
<path d="M17.3333 9.92285H6.66667C5.19391 9.92285 4 11.1627 4 12.6921V18.2305C4 19.7599 5.19391 20.9998 6.66667 20.9998H17.3333C18.8061 20.9998 20 19.7599 20 18.2305V12.6921C20 11.1627 18.8061 9.92285 17.3333 9.92285Z" stroke="#BBB7B7" stroke-width="1.5" stroke-linecap="round" stroke-linejoin="round"/>
<path d="M8.00033 16.8464C8.73671 16.8464 9.33366 16.2265 9.33366 15.4618C9.33366 14.6971 8.73671 14.0771 8.00033 14.0771C7.26395 14.0771 6.66699 14.6971 6.66699 15.4618C6.66699 16.2265 7.26395 16.8464 8.00033 16.8464Z" stroke="#BBB7B7" stroke-width="1.2" stroke-linecap="round" stroke-linejoin="round"/>
<path d="M16.0003 16.8464C16.7367 16.8464 17.3337 16.2265 17.3337 15.4618C17.3337 14.6971 16.7367 14.0771 16.0003 14.0771C15.2639 14.0771 14.667 14.6971 14.667 15.4618C14.667 16.2265 15.2639 16.8464 16.0003 16.8464Z" stroke="#BBB7B7" stroke-width="1.2" stroke-linecap="round" stroke-linejoin="round"/>
<path d="M12 4V9.53846" stroke="#BBB7B7" stroke-width="1.5" stroke-linecap="round" stroke-linejoin="round"/>
<path d="M12.0003 5.76923C12.7367 5.76923 13.3337 5.14932 13.3337 4.38462C13.3337 3.61991 12.7367 3 12.0003 3C11.2639 3 10.667 3.61991 10.667 4.38462C10.667 5.14932 11.2639 5.76923 12.0003 5.76923Z" fill="#BBB7B7" stroke="#BBB7B7" stroke-width="1.5" stroke-linecap="round" stroke-linejoin="round"/>
</svg>
