<svg width="48" height="49" viewBox="0 0 48 49" fill="none" xmlns="http://www.w3.org/2000/svg">
<path d="M10.5 6.5H27.5L28.5 16L37.5 16.7639V42.5H10.5V6.5Z" fill="#17CB5C"/>
<path d="M16 6.125H27.172C28.2328 6.12523 29.25 6.55559 30 7.32142L36.828 14.2917C37.5782 15.0573 37.9998 16.0957 38 17.1786V40.8333C38 41.3748 37.7893 41.8941 37.4142 42.277C37.0391 42.6599 36.5304 42.875 36 42.875H12C11.4696 42.875 10.9609 42.6599 10.5858 42.277C10.2107 41.8941 10 41.3748 10 40.8333V8.16667C10 7.62518 10.2107 7.10588 10.5858 6.72299C10.9609 6.3401 11.4696 6.125 12 6.125H16Z" stroke="#111827" stroke-linecap="round" stroke-linejoin="round"/>
<path d="M28 6.125V14.2917C28 14.8331 28.2107 15.3525 28.5858 15.7353C28.9609 16.1182 29.4696 16.3333 30 16.3333H38" stroke="#111827" stroke-linecap="round" stroke-linejoin="round"/>
<path d="M20.8751 21.5H20.0825C20.0356 21.272 19.9536 21.0717 19.8364 20.8991C19.7213 20.7266 19.5807 20.5817 19.4145 20.4645C19.2504 20.3452 19.0683 20.2557 18.868 20.196C18.6677 20.1364 18.4589 20.1065 18.2416 20.1065C17.8453 20.1065 17.4862 20.2067 17.1645 20.407C16.8449 20.6072 16.5903 20.9023 16.4007 21.2923C16.2132 21.6822 16.1194 22.1605 16.1194 22.7273C16.1194 23.294 16.2132 23.7724 16.4007 24.1623C16.5903 24.5522 16.8449 24.8473 17.1645 25.0476C17.4862 25.2479 17.8453 25.348 18.2416 25.348C18.4589 25.348 18.6677 25.3182 18.868 25.2585C19.0683 25.1989 19.2504 25.1104 19.4145 24.9933C19.5807 24.8739 19.7213 24.728 19.8364 24.5554C19.9536 24.3807 20.0356 24.1804 20.0825 23.9545H20.8751C20.8154 24.2891 20.7068 24.5884 20.5491 24.8526C20.3914 25.1168 20.1954 25.3416 19.961 25.527C19.7267 25.7102 19.4635 25.8498 19.1716 25.9457C18.8818 26.0415 18.5718 26.0895 18.2416 26.0895C17.6833 26.0895 17.1869 25.9531 16.7522 25.6804C16.3176 25.4077 15.9756 25.0199 15.7263 24.517C15.477 24.0142 15.3524 23.4176 15.3524 22.7273C15.3524 22.0369 15.477 21.4403 15.7263 20.9375C15.9756 20.4347 16.3176 20.0469 16.7522 19.7741C17.1869 19.5014 17.6833 19.3651 18.2416 19.3651C18.5718 19.3651 18.8818 19.413 19.1716 19.5089C19.4635 19.6048 19.7267 19.7454 19.961 19.9308C20.1954 20.114 20.3914 20.3377 20.5491 20.6019C20.7068 20.864 20.8154 21.1634 20.8751 21.5ZM25.7354 21.0909C25.6971 20.767 25.5415 20.5156 25.2688 20.3366C24.9961 20.1577 24.6616 20.0682 24.2653 20.0682C23.9755 20.0682 23.7219 20.1151 23.5046 20.2088C23.2894 20.3026 23.1211 20.4315 22.9996 20.5955C22.8803 20.7596 22.8207 20.946 22.8207 21.1548C22.8207 21.3295 22.8622 21.4798 22.9453 21.6055C23.0305 21.729 23.1392 21.8324 23.2713 21.9155C23.4034 21.9964 23.5419 22.0636 23.6868 22.1168C23.8317 22.168 23.9648 22.2095 24.0863 22.2415L24.7511 22.4205C24.9215 22.4652 25.1112 22.527 25.32 22.6058C25.5309 22.6847 25.7322 22.7923 25.924 22.9286C26.1179 23.0629 26.2777 23.2354 26.4034 23.4464C26.5291 23.6573 26.592 23.9162 26.592 24.223C26.592 24.5767 26.4993 24.8963 26.3139 25.1818C26.1307 25.4673 25.8622 25.6942 25.5085 25.8626C25.157 26.0309 24.7298 26.1151 24.2269 26.1151C23.7582 26.1151 23.3523 26.0394 23.0092 25.8881C22.6683 25.7369 22.3999 25.5259 22.2038 25.2553C22.0099 24.9847 21.9002 24.6705 21.8746 24.3125H22.6928C22.7141 24.5597 22.7972 24.7642 22.9421 24.9261C23.0891 25.0859 23.2745 25.2053 23.4982 25.2841C23.7241 25.3608 23.967 25.3991 24.2269 25.3991C24.5295 25.3991 24.8011 25.3501 25.0419 25.2521C25.2827 25.152 25.4734 25.0135 25.614 24.8366C25.7546 24.6577 25.8249 24.4489 25.8249 24.2102C25.8249 23.9929 25.7642 23.8161 25.6428 23.6797C25.5213 23.5433 25.3615 23.4325 25.1634 23.3473C24.9652 23.2621 24.7511 23.1875 24.521 23.1236L23.7156 22.8935C23.2042 22.7464 22.7994 22.5366 22.5011 22.2638C22.2028 21.9911 22.0536 21.6342 22.0536 21.1932C22.0536 20.8267 22.1527 20.5071 22.3509 20.2344C22.5511 19.9595 22.8196 19.7464 23.1562 19.5952C23.495 19.4418 23.8732 19.3651 24.2908 19.3651C24.7127 19.3651 25.0877 19.4407 25.4158 19.592C25.744 19.7411 26.0039 19.9457 26.1957 20.2056C26.3896 20.4656 26.4918 20.7607 26.5025 21.0909H25.7354ZM28.1636 19.4545L30.1068 24.9645H30.1835L32.1267 19.4545H32.9577L30.5542 26H29.7361L27.3327 19.4545H28.1636Z" fill="white"/>
<path d="M21.4737 28.583V38.7913M26.5263 28.583V38.7913M16 33.5851H32" stroke="white" stroke-width="0.5"/>
<path d="M30.3158 28.583H17.6842C16.754 28.583 16 29.4971 16 30.6247V36.7497C16 37.8773 16.754 38.7913 17.6842 38.7913H30.3158C31.246 38.7913 32 37.8773 32 36.7497V30.6247C32 29.4971 31.246 28.583 30.3158 28.583Z" stroke="white" stroke-width="0.5"/>
</svg>
