<svg width="30" height="39" viewBox="0 0 30 39" fill="none" xmlns="http://www.w3.org/2000/svg">
<path d="M1.5 1.5H18.5L19.5 11L28.5 11.7639V37.5H1.5V1.5Z" fill="#17CB5C"/>
<path d="M7 1.125H18.172C19.2328 1.12523 20.25 1.55559 21 2.32142L27.828 9.29167C28.5782 10.0573 28.9998 11.0957 29 12.1786V35.8333C29 36.3748 28.7893 36.8941 28.4142 37.277C28.0391 37.6599 27.5304 37.875 27 37.875H3C2.46957 37.875 1.96086 37.6599 1.58579 37.277C1.21071 36.8941 1 36.3748 1 35.8333V3.16667C1 2.62518 1.21071 2.10588 1.58579 1.72299C1.96086 1.3401 2.46957 1.125 3 1.125H7Z" stroke="#111827" stroke-linecap="round" stroke-linejoin="round"/>
<path d="M19 1.125V9.29167C19 9.83315 19.2107 10.3525 19.5858 10.7353C19.9609 11.1182 20.4696 11.3333 21 11.3333H29" stroke="#111827" stroke-linecap="round" stroke-linejoin="round"/>
<path d="M11.8751 16.5H11.0825C11.0356 16.272 10.9536 16.0717 10.8364 15.8991C10.7213 15.7266 10.5807 15.5817 10.4145 15.4645C10.2504 15.3452 10.0683 15.2557 9.86799 15.196C9.6677 15.1364 9.4589 15.1065 9.24157 15.1065C8.84526 15.1065 8.48624 15.2067 8.16451 15.407C7.8449 15.6072 7.59029 15.9023 7.40066 16.2923C7.21316 16.6822 7.11941 17.1605 7.11941 17.7273C7.11941 18.294 7.21316 18.7724 7.40066 19.1623C7.59029 19.5522 7.8449 19.8473 8.16451 20.0476C8.48624 20.2479 8.84526 20.348 9.24157 20.348C9.4589 20.348 9.6677 20.3182 9.86799 20.2585C10.0683 20.1989 10.2504 20.1104 10.4145 19.9933C10.5807 19.8739 10.7213 19.728 10.8364 19.5554C10.9536 19.3807 11.0356 19.1804 11.0825 18.9545H11.8751C11.8154 19.2891 11.7068 19.5884 11.5491 19.8526C11.3914 20.1168 11.1954 20.3416 10.961 20.527C10.7267 20.7102 10.4635 20.8498 10.1716 20.9457C9.88184 21.0415 9.57182 21.0895 9.24157 21.0895C8.68333 21.0895 8.18688 20.9531 7.75222 20.6804C7.31756 20.4077 6.97559 20.0199 6.7263 19.517C6.47701 19.0142 6.35236 18.4176 6.35236 17.7273C6.35236 17.0369 6.47701 16.4403 6.7263 15.9375C6.97559 15.4347 7.31756 15.0469 7.75222 14.7741C8.18688 14.5014 8.68333 14.3651 9.24157 14.3651C9.57182 14.3651 9.88184 14.413 10.1716 14.5089C10.4635 14.6048 10.7267 14.7454 10.961 14.9308C11.1954 15.114 11.3914 15.3377 11.5491 15.6019C11.7068 15.864 11.8154 16.1634 11.8751 16.5ZM16.7354 16.0909C16.6971 15.767 16.5415 15.5156 16.2688 15.3366C15.9961 15.1577 15.6616 15.0682 15.2653 15.0682C14.9755 15.0682 14.7219 15.1151 14.5046 15.2088C14.2894 15.3026 14.1211 15.4315 13.9996 15.5955C13.8803 15.7596 13.8207 15.946 13.8207 16.1548C13.8207 16.3295 13.8622 16.4798 13.9453 16.6055C14.0305 16.729 14.1392 16.8324 14.2713 16.9155C14.4034 16.9964 14.5419 17.0636 14.6868 17.1168C14.8317 17.168 14.9648 17.2095 15.0863 17.2415L15.7511 17.4205C15.9215 17.4652 16.1112 17.527 16.32 17.6058C16.5309 17.6847 16.7322 17.7923 16.924 17.9286C17.1179 18.0629 17.2777 18.2354 17.4034 18.4464C17.5291 18.6573 17.592 18.9162 17.592 19.223C17.592 19.5767 17.4993 19.8963 17.3139 20.1818C17.1307 20.4673 16.8622 20.6942 16.5085 20.8626C16.157 21.0309 15.7298 21.1151 15.2269 21.1151C14.7582 21.1151 14.3523 21.0394 14.0092 20.8881C13.6683 20.7369 13.3999 20.5259 13.2038 20.2553C13.0099 19.9847 12.9002 19.6705 12.8746 19.3125H13.6928C13.7141 19.5597 13.7972 19.7642 13.9421 19.9261C14.0891 20.0859 14.2745 20.2053 14.4982 20.2841C14.7241 20.3608 14.967 20.3991 15.2269 20.3991C15.5295 20.3991 15.8011 20.3501 16.0419 20.2521C16.2827 20.152 16.4734 20.0135 16.614 19.8366C16.7546 19.6577 16.8249 19.4489 16.8249 19.2102C16.8249 18.9929 16.7642 18.8161 16.6428 18.6797C16.5213 18.5433 16.3615 18.4325 16.1634 18.3473C15.9652 18.2621 15.7511 18.1875 15.521 18.1236L14.7156 17.8935C14.2042 17.7464 13.7994 17.5366 13.5011 17.2638C13.2028 16.9911 13.0536 16.6342 13.0536 16.1932C13.0536 15.8267 13.1527 15.5071 13.3509 15.2344C13.5511 14.9595 13.8196 14.7464 14.1562 14.5952C14.495 14.4418 14.8732 14.3651 15.2908 14.3651C15.7127 14.3651 16.0877 14.4407 16.4158 14.592C16.744 14.7411 17.0039 14.9457 17.1957 15.2056C17.3896 15.4656 17.4918 15.7607 17.5025 16.0909H16.7354ZM19.1636 14.4545L21.1068 19.9645H21.1835L23.1267 14.4545H23.9577L21.5542 21H20.7361L18.3327 14.4545H19.1636Z" fill="white"/>
<path d="M12.4737 23.583V33.7913M17.5263 23.583V33.7913M7 28.5851H23" stroke="white" stroke-width="0.5"/>
<path d="M21.3158 23.583H8.68421C7.75405 23.583 7 24.4971 7 25.6247V31.7497C7 32.8773 7.75405 33.7913 8.68421 33.7913H21.3158C22.246 33.7913 23 32.8773 23 31.7497V25.6247C23 24.4971 22.246 23.583 21.3158 23.583Z" stroke="white" stroke-width="0.5"/>
</svg>
