<svg width="29" height="39" viewBox="0 0 29 39" fill="none" xmlns="http://www.w3.org/2000/svg">
<path d="M1 1.5H18.1818L19 11H28V37.5H1V1.5Z" fill="#4285F4"/>
<path d="M6.6665 1.125H17.6058C18.6444 1.12523 19.6405 1.55559 20.3748 2.32142L27.0606 9.29167C27.7952 10.0573 28.2079 11.0957 28.2082 12.1786V35.8333C28.2082 36.3748 28.0018 36.8941 27.6346 37.277C27.2673 37.6599 26.7692 37.875 26.2498 37.875H2.74984C2.23045 37.875 1.73235 37.6599 1.36509 37.277C0.997828 36.8941 0.791504 36.3748 0.791504 35.8333V3.16667C0.791504 2.62518 0.997828 2.10588 1.36509 1.72299C1.73235 1.3401 2.23045 1.125 2.74984 1.125H6.6665Z" stroke="#111827" stroke-linecap="round" stroke-linejoin="round"/>
<path d="M18.4165 1.125V9.29167C18.4165 9.83315 18.6228 10.3525 18.9901 10.7353C19.3573 11.1182 19.8555 11.3333 20.3748 11.3333H28.2082" fill="white"/>
<path d="M18.4165 1.125V9.29167C18.4165 9.83315 18.6228 10.3525 18.9901 10.7353C19.3573 11.1182 19.8555 11.3333 20.3748 11.3333H28.2082" stroke="#111827" stroke-linecap="round" stroke-linejoin="round"/>
<path d="M6.87646 26H4.85658V19.4545H6.96595C7.6009 19.4545 8.14422 19.5856 8.59592 19.8477C9.04763 20.1076 9.39387 20.4815 9.63463 20.9695C9.8754 21.4553 9.99578 22.0369 9.99578 22.7145C9.99578 23.3963 9.87433 23.9833 9.63144 24.4755C9.38854 24.9656 9.03485 25.3427 8.57036 25.6069C8.10587 25.869 7.54124 26 6.87646 26ZM5.64919 25.2969H6.82533C7.36652 25.2969 7.81503 25.1925 8.17085 24.9837C8.52668 24.7749 8.79195 24.4776 8.96666 24.092C9.14138 23.7063 9.22874 23.2472 9.22874 22.7145C9.22874 22.1861 9.14244 21.7312 8.96986 21.3498C8.79727 20.9663 8.53946 20.6722 8.19642 20.4677C7.85338 20.261 7.42618 20.1577 6.91482 20.1577H5.64919V25.2969ZM16.8481 22.7273C16.8481 23.4176 16.7234 24.0142 16.4741 24.517C16.2248 25.0199 15.8829 25.4077 15.4482 25.6804C15.0135 25.9531 14.5171 26.0895 13.9589 26.0895C13.4006 26.0895 12.9042 25.9531 12.4695 25.6804C12.0348 25.4077 11.6929 25.0199 11.4436 24.517C11.1943 24.0142 11.0696 23.4176 11.0696 22.7273C11.0696 22.0369 11.1943 21.4403 11.4436 20.9375C11.6929 20.4347 12.0348 20.0469 12.4695 19.7741C12.9042 19.5014 13.4006 19.3651 13.9589 19.3651C14.5171 19.3651 15.0135 19.5014 15.4482 19.7741C15.8829 20.0469 16.2248 20.4347 16.4741 20.9375C16.7234 21.4403 16.8481 22.0369 16.8481 22.7273ZM16.081 22.7273C16.081 22.1605 15.9862 21.6822 15.7966 21.2923C15.6091 20.9023 15.3544 20.6072 15.0327 20.407C14.7131 20.2067 14.3552 20.1065 13.9589 20.1065C13.5625 20.1065 13.2035 20.2067 12.8818 20.407C12.5622 20.6072 12.3076 20.9023 12.1179 21.2923C11.9304 21.6822 11.8367 22.1605 11.8367 22.7273C11.8367 23.294 11.9304 23.7724 12.1179 24.1623C12.3076 24.5522 12.5622 24.8473 12.8818 25.0476C13.2035 25.2479 13.5625 25.348 13.9589 25.348C14.3552 25.348 14.7131 25.2479 15.0327 25.0476C15.3544 24.8473 15.6091 24.5522 15.7966 24.1623C15.9862 23.7724 16.081 23.294 16.081 22.7273ZM23.4478 21.5H22.6552C22.6084 21.272 22.5263 21.0717 22.4091 20.8991C22.2941 20.7266 22.1535 20.5817 21.9873 20.4645C21.8232 20.3452 21.641 20.2557 21.4407 20.196C21.2405 20.1364 21.0316 20.1065 20.8143 20.1065C20.418 20.1065 20.059 20.2067 19.7373 20.407C19.4177 20.6072 19.163 20.9023 18.9734 21.2923C18.7859 21.6822 18.6922 22.1605 18.6922 22.7273C18.6922 23.294 18.7859 23.7724 18.9734 24.1623C19.163 24.5522 19.4177 24.8473 19.7373 25.0476C20.059 25.2479 20.418 25.348 20.8143 25.348C21.0316 25.348 21.2405 25.3182 21.4407 25.2585C21.641 25.1989 21.8232 25.1104 21.9873 24.9933C22.1535 24.8739 22.2941 24.728 22.4091 24.5554C22.5263 24.3807 22.6084 24.1804 22.6552 23.9545H23.4478C23.3882 24.2891 23.2795 24.5884 23.1218 24.8526C22.9642 25.1168 22.7682 25.3416 22.5338 25.527C22.2994 25.7102 22.0363 25.8498 21.7444 25.9457C21.4546 26.0415 21.1446 26.0895 20.8143 26.0895C20.2561 26.0895 19.7596 25.9531 19.325 25.6804C18.8903 25.4077 18.5483 25.0199 18.2991 24.517C18.0498 24.0142 17.9251 23.4176 17.9251 22.7273C17.9251 22.0369 18.0498 21.4403 18.2991 20.9375C18.5483 20.4347 18.8903 20.0469 19.325 19.7741C19.7596 19.5014 20.2561 19.3651 20.8143 19.3651C21.1446 19.3651 21.4546 19.413 21.7444 19.5089C22.0363 19.6048 22.2994 19.7454 22.5338 19.9308C22.7682 20.114 22.9642 20.3377 23.1218 20.6019C23.2795 20.864 23.3882 21.1634 23.4478 21.5Z" fill="white"/>
</svg>
