<svg width="28" height="30" viewBox="0 0 28 30" fill="none" xmlns="http://www.w3.org/2000/svg">
<g filter="url(#filter0_d_3372_3756)">
<path d="M14 21C18.9706 21 23 16.9706 23 12C23 7.02944 18.9706 3 14 3C9.02944 3 5 7.02944 5 12C5 16.9706 9.02944 21 14 21Z" stroke="black" stroke-width="1.5" stroke-linecap="round" stroke-linejoin="round"/>
<path d="M5 12H23" stroke="black" stroke-width="1.5" stroke-linecap="round" stroke-linejoin="round"/>
<path d="M14 3C15.9473 5.59644 17 8.75445 17 12C17 15.2456 15.9473 18.4036 14 21M14 3C12.0527 5.59644 11 8.75445 11 12C11 15.2456 12.0527 18.4036 14 21" stroke="black" stroke-width="1.5" stroke-linecap="round" stroke-linejoin="round"/>
</g>
<defs>
<filter id="filter0_d_3372_3756" x="-2" y="0" width="32" height="32" filterUnits="userSpaceOnUse" color-interpolation-filters="sRGB">
<feFlood flood-opacity="0" result="BackgroundImageFix"/>
<feColorMatrix in="SourceAlpha" type="matrix" values="0 0 0 0 0 0 0 0 0 0 0 0 0 0 0 0 0 0 127 0" result="hardAlpha"/>
<feOffset dy="4"/>
<feGaussianBlur stdDeviation="2"/>
<feComposite in2="hardAlpha" operator="out"/>
<feColorMatrix type="matrix" values="0 0 0 0 0 0 0 0 0 0 0 0 0 0 0 0 0 0 0.25 0"/>
<feBlend mode="normal" in2="BackgroundImageFix" result="effect1_dropShadow_3372_3756"/>
<feBlend mode="normal" in="SourceGraphic" in2="effect1_dropShadow_3372_3756" result="shape"/>
</filter>
</defs>
</svg>
