<svg width="29" height="39" viewBox="0 0 29 39" fill="none" xmlns="http://www.w3.org/2000/svg">
<path d="M6.6665 1.125H17.6058C18.6444 1.12523 19.6405 1.55559 20.3748 2.32142L27.0606 9.29167C27.7952 10.0573 28.2079 11.0957 28.2082 12.1786V35.8333C28.2082 36.3748 28.0018 36.8941 27.6346 37.277C27.2673 37.6599 26.7692 37.875 26.2498 37.875H2.74984C2.23045 37.875 1.73235 37.6599 1.36509 37.277C0.997828 36.8941 0.791504 36.3748 0.791504 35.8333V3.16667C0.791504 2.62518 0.997828 2.10588 1.36509 1.72299C1.73235 1.3401 2.23045 1.125 2.74984 1.125H6.6665Z" stroke="#111827" stroke-linecap="round" stroke-linejoin="round"/>
<path d="M18.4165 1.125V9.29167C18.4165 9.83315 18.6228 10.3525 18.9901 10.7353C19.3573 11.1182 19.8555 11.3333 20.3748 11.3333H28.2082" stroke="#111827" stroke-linecap="round" stroke-linejoin="round"/>
<path d="M9.51499 19.5L6.6665 22.5625L9.51499 25.625M19.4847 19.5L22.3332 22.5625L19.4847 25.625M13.7877 25.625L15.9241 19.5" stroke="#111827" stroke-linecap="round" stroke-linejoin="round"/>
</svg>
