<svg width="24" height="24" viewBox="0 0 24 24" fill="none" xmlns="http://www.w3.org/2000/svg">
<path d="M9.9996 13C9.08346 12.0654 8.57031 10.8088 8.57031 9.50001C8.57031 8.19124 9.08346 6.93465 9.9996 6.00001L11.9996 4.00001C12.9625 3.27786 14.1535 2.92727 15.354 3.01259C16.5546 3.09791 17.6841 3.61342 18.5351 4.46447C19.3862 5.31553 19.9017 6.44501 19.987 7.64556C20.0723 8.84611 19.7217 10.0371 18.9996 11L17.9996 12" stroke="#BBB7B7" stroke-width="1.5" stroke-linecap="round" stroke-linejoin="round"/>
<path d="M14 11C14.9161 11.9346 15.4293 13.1912 15.4293 14.5C15.4293 15.8088 14.9161 17.0654 14 18L12 20C11.0371 20.7221 9.84611 21.0727 8.64556 20.9874C7.44501 20.9021 6.31553 20.3866 5.46447 19.5355C4.61342 18.6845 4.09791 17.555 4.01259 16.3544C3.92727 15.1539 4.27786 13.9629 5.00001 13L6.00001 12" stroke="#BBB7B7" stroke-width="1.5" stroke-linecap="round" stroke-linejoin="round"/>
</svg>
