<svg width="44" height="44" viewBox="0 0 44 44" fill="none" xmlns="http://www.w3.org/2000/svg">
<path d="M18.3332 23.8333C16.6537 22.1198 15.7129 19.8161 15.7129 17.4167C15.7129 15.0173 16.6537 12.7135 18.3332 11L21.9999 7.33335C23.7652 6.00941 25.9487 5.36665 28.1497 5.52307C30.3507 5.67949 32.4215 6.6246 33.9817 8.18487C35.542 9.74514 36.4871 11.8159 36.6435 14.0169C36.7999 16.2179 36.1572 18.4014 34.8333 20.1667L32.9999 22" stroke="currentColor" stroke-width="1.5" stroke-linecap="round" stroke-linejoin="round"/>
<path d="M25.6668 20.167C27.3464 21.8805 28.2872 24.1843 28.2872 26.5837C28.2872 28.9831 27.3464 31.2868 25.6668 33.0003L22.0002 36.667C20.2349 37.9909 18.0514 38.6337 15.8504 38.4773C13.6494 38.3208 11.5786 37.3757 10.0184 35.8155C8.45809 34.2552 7.51299 32.1845 7.35657 29.9835C7.20015 27.7825 7.84291 25.5989 9.16684 23.8337L11.0002 22.0003" stroke="currentColor" stroke-width="1.5" stroke-linecap="round" stroke-linejoin="round"/>
</svg>
