<svg width="24" height="24" viewBox="0 0 24 24" fill="none" xmlns="http://www.w3.org/2000/svg">
<path d="M10.0001 13C9.08395 12.0654 8.5708 10.8088 8.5708 9.50001C8.5708 8.19124 9.08395 6.93465 10.0001 6.00001L12.0001 4.00001C12.9629 3.27786 14.154 2.92727 15.3545 3.01259C16.5551 3.09791 17.6846 3.61342 18.5356 4.46447C19.3867 5.31553 19.9022 6.44501 19.9875 7.64556C20.0728 8.84611 19.7222 10.0371 19.0001 11L18.0001 12" stroke="#BBB7B7" stroke-width="1.5" stroke-linecap="round" stroke-linejoin="round"/>
<path d="M14 11C14.9161 11.9346 15.4293 13.1912 15.4293 14.5C15.4293 15.8088 14.9161 17.0654 14 18L12 20C11.0371 20.7221 9.84611 21.0727 8.64556 20.9874C7.44501 20.9021 6.31553 20.3866 5.46447 19.5355C4.61342 18.6845 4.09791 17.555 4.01259 16.3544C3.92727 15.1539 4.27786 13.9629 5.00001 13L6.00001 12" stroke="#BBB7B7" stroke-width="1.5" stroke-linecap="round" stroke-linejoin="round"/>
</svg>
