<svg width="44" height="44" viewBox="0 0 44 44" fill="none" xmlns="http://www.w3.org/2000/svg">
<path d="M18.3313 23.8333C16.6517 22.1198 15.7109 19.8161 15.7109 17.4167C15.7109 15.0173 16.6517 12.7135 18.3313 11L21.998 7.33335C23.7632 6.00941 25.9468 5.36665 28.1478 5.52307C30.3488 5.67949 32.4195 6.6246 33.9798 8.18487C35.54 9.74514 36.4851 11.8159 36.6416 14.0169C36.798 16.2179 36.1552 18.4014 34.8313 20.1667L32.998 22" stroke="#BBB7B7" stroke-width="1.5" stroke-linecap="round" stroke-linejoin="round"/>
<path d="M25.6693 20.166C27.3489 21.8795 28.2896 24.1833 28.2896 26.5827C28.2896 28.9821 27.3489 31.2858 25.6693 32.9993L22.0026 36.666C20.2374 37.9899 18.0538 38.6327 15.8528 38.4763C13.6518 38.3199 11.5811 37.3748 10.0208 35.8145C8.46053 34.2542 7.51543 32.1835 7.35901 29.9825C7.20259 27.7815 7.84535 25.5979 9.16928 23.8327L11.0026 21.9993" stroke="#BBB7B7" stroke-width="1.5" stroke-linecap="round" stroke-linejoin="round"/>
</svg>
