<svg width="24" height="24" viewBox="0 0 24 24" fill="none" xmlns="http://www.w3.org/2000/svg">
<path d="M9 7H21" stroke="#BBB7B7" stroke-width="1.5" stroke-linecap="round" stroke-linejoin="round"/>
<path d="M9 12H21" stroke="#BBB7B7" stroke-width="1.5" stroke-linecap="round" stroke-linejoin="round"/>
<path d="M9 17H21" stroke="#BBB7B7" stroke-width="1.5" stroke-linecap="round" stroke-linejoin="round"/>
<path d="M5 8C5.55228 8 6 7.55228 6 7C6 6.44772 5.55228 6 5 6C4.44772 6 4 6.44772 4 7C4 7.55228 4.44772 8 5 8Z" stroke="#BBB7B7" stroke-width="1.5" stroke-linecap="round" stroke-linejoin="round"/>
<path d="M5 13C5.55228 13 6 12.5523 6 12C6 11.4477 5.55228 11 5 11C4.44772 11 4 11.4477 4 12C4 12.5523 4.44772 13 5 13Z" stroke="#BBB7B7" stroke-width="1.5" stroke-linecap="round" stroke-linejoin="round"/>
<path d="M5 18C5.55228 18 6 17.5523 6 17C6 16.4477 5.55228 16 5 16C4.44772 16 4 16.4477 4 17C4 17.5523 4.44772 18 5 18Z" stroke="#BBB7B7" stroke-width="1.5" stroke-linecap="round" stroke-linejoin="round"/>
</svg>
