<svg width="27" height="27" viewBox="0 0 27 27" fill="none" xmlns="http://www.w3.org/2000/svg">
<g filter="url(#filter0_d_3372_3778)">
<path d="M10 7H22" stroke="black" stroke-width="1.5" stroke-linecap="round" stroke-linejoin="round"/>
<path d="M10 12H22" stroke="black" stroke-width="1.5" stroke-linecap="round" stroke-linejoin="round"/>
<path d="M10 17H22" stroke="black" stroke-width="1.5" stroke-linecap="round" stroke-linejoin="round"/>
<path d="M6 8C6.55228 8 7 7.55228 7 7C7 6.44772 6.55228 6 6 6C5.44772 6 5 6.44772 5 7C5 7.55228 5.44772 8 6 8Z" stroke="black" stroke-width="1.5" stroke-linecap="round" stroke-linejoin="round"/>
<path d="M6 13C6.55228 13 7 12.5523 7 12C7 11.4477 6.55228 11 6 11C5.44772 11 5 11.4477 5 12C5 12.5523 5.44772 13 6 13Z" stroke="black" stroke-width="1.5" stroke-linecap="round" stroke-linejoin="round"/>
<path d="M6 18C6.55228 18 7 17.5523 7 17C7 16.4477 6.55228 16 6 16C5.44772 16 5 16.4477 5 17C5 17.5523 5.44772 18 6 18Z" stroke="black" stroke-width="1.5" stroke-linecap="round" stroke-linejoin="round"/>
</g>
<defs>
<filter id="filter0_d_3372_3778" x="-3" y="0" width="32" height="32" filterUnits="userSpaceOnUse" color-interpolation-filters="sRGB">
<feFlood flood-opacity="0" result="BackgroundImageFix"/>
<feColorMatrix in="SourceAlpha" type="matrix" values="0 0 0 0 0 0 0 0 0 0 0 0 0 0 0 0 0 0 127 0" result="hardAlpha"/>
<feOffset dy="4"/>
<feGaussianBlur stdDeviation="2"/>
<feComposite in2="hardAlpha" operator="out"/>
<feColorMatrix type="matrix" values="0 0 0 0 0 0 0 0 0 0 0 0 0 0 0 0 0 0 0.25 0"/>
<feBlend mode="normal" in2="BackgroundImageFix" result="effect1_dropShadow_3372_3778"/>
<feBlend mode="normal" in="SourceGraphic" in2="effect1_dropShadow_3372_3778" result="shape"/>
</filter>
</defs>
</svg>
