<svg width="29" height="39" viewBox="0 0 29 39" fill="none" xmlns="http://www.w3.org/2000/svg">
<path d="M1 1.5H18.1818L19 11H28V37.5H1V1.5Z" fill="#00CCFF"/>
<path d="M6.6665 1.125H17.6058C18.6444 1.12523 19.6405 1.55559 20.3748 2.32142L27.0606 9.29167C27.7952 10.0573 28.2079 11.0957 28.2082 12.1786V35.8333C28.2082 36.3748 28.0018 36.8941 27.6346 37.277C27.2673 37.6599 26.7692 37.875 26.2498 37.875H2.74984C2.23045 37.875 1.73235 37.6599 1.36509 37.277C0.997828 36.8941 0.791504 36.3748 0.791504 35.8333V3.16667C0.791504 2.62518 0.997828 2.10588 1.36509 1.72299C1.73235 1.3401 2.23045 1.125 2.74984 1.125H6.6665Z" stroke="#111827" stroke-linecap="round" stroke-linejoin="round"/>
<path d="M18.4165 1.125V9.29167C18.4165 9.83315 18.6228 10.3525 18.9901 10.7353C19.3573 11.1182 19.8555 11.3333 20.3748 11.3333H28.2082" fill="white"/>
<path d="M18.4165 1.125V9.29167C18.4165 9.83315 18.6228 10.3525 18.9901 10.7353C19.3573 11.1182 19.8555 11.3333 20.3748 11.3333H28.2082" stroke="#111827" stroke-linecap="round" stroke-linejoin="round"/>
<path d="M6.54972 27.0568C6.37453 27.0568 6.2242 26.9941 6.09872 26.8686C5.97325 26.7431 5.91051 26.5928 5.91051 26.4176C5.91051 26.2424 5.97325 26.0921 6.09872 25.9666C6.2242 25.8411 6.37453 25.7784 6.54972 25.7784C6.72491 25.7784 6.87524 25.8411 7.00071 25.9666C7.12618 26.0921 7.18892 26.2424 7.18892 26.4176C7.18892 26.5336 7.15933 26.6402 7.10014 26.7372C7.04332 26.8343 6.96638 26.9124 6.86932 26.9716C6.77462 27.0284 6.66809 27.0568 6.54972 27.0568ZM8.69283 27V21.5455H9.50249V22.3977H9.57351C9.68714 22.1065 9.87062 21.8804 10.1239 21.7195C10.3772 21.5561 10.6815 21.4744 11.0366 21.4744C11.3964 21.4744 11.6959 21.5561 11.935 21.7195C12.1765 21.8804 12.3647 22.1065 12.4996 22.3977H12.5565C12.6961 22.116 12.9057 21.8923 13.185 21.7266C13.4644 21.5585 13.7994 21.4744 14.19 21.4744C14.6777 21.4744 15.0766 21.6271 15.3867 21.9325C15.6969 22.2356 15.8519 22.7079 15.8519 23.3494V27H15.0138V23.3494C15.0138 22.947 14.9038 22.6593 14.6836 22.4865C14.4634 22.3137 14.2042 22.2273 13.9059 22.2273C13.5224 22.2273 13.2253 22.3433 13.0146 22.5753C12.8039 22.8049 12.6985 23.0961 12.6985 23.4489V27H11.8462V23.2642C11.8462 22.9541 11.7456 22.7043 11.5444 22.5149C11.3432 22.3232 11.0839 22.2273 10.7667 22.2273C10.5489 22.2273 10.3453 22.2853 10.1559 22.4013C9.96887 22.5173 9.81735 22.6783 9.70135 22.8842C9.58771 23.0878 9.53089 23.3234 9.53089 23.5909V27H8.69283ZM19.4439 27.1136C18.9893 27.1136 18.5881 26.9988 18.2401 26.7692C17.892 26.5372 17.6198 26.2105 17.4233 25.7891C17.2268 25.3653 17.1286 24.8646 17.1286 24.2869C17.1286 23.714 17.2268 23.2169 17.4233 22.7955C17.6198 22.3741 17.8932 22.0485 18.2436 21.8189C18.594 21.5893 18.9988 21.4744 19.4581 21.4744C19.8132 21.4744 20.0938 21.5336 20.2997 21.652C20.508 21.768 20.6667 21.9006 20.7756 22.0497C20.8868 22.1965 20.9732 22.3172 21.0348 22.4119H21.1058V19.7273H21.9439V27H21.1342V26.1619H21.0348C20.9732 26.2614 20.8857 26.3868 20.772 26.5384C20.6584 26.6875 20.4962 26.8213 20.2855 26.9396C20.0748 27.0556 19.7943 27.1136 19.4439 27.1136ZM19.5575 26.3608C19.8937 26.3608 20.1778 26.2732 20.4098 26.098C20.6418 25.9205 20.8182 25.6754 20.9389 25.3629C21.0597 25.0481 21.12 24.6847 21.12 24.2727C21.12 23.8655 21.0608 23.5092 20.9425 23.2038C20.8241 22.8961 20.6489 22.657 20.4169 22.4865C20.1849 22.3137 19.8984 22.2273 19.5575 22.2273C19.2024 22.2273 18.9065 22.3184 18.6697 22.5007C18.4354 22.6806 18.259 22.9257 18.1406 23.2358C18.0246 23.5436 17.9666 23.8892 17.9666 24.2727C17.9666 24.661 18.0258 25.0137 18.1442 25.331C18.2649 25.6458 18.4425 25.8968 18.6768 26.0838C18.9136 26.2685 19.2071 26.3608 19.5575 26.3608Z" fill="white"/>
</svg>
