<svg width="24" height="24" viewBox="0 0 24 24" fill="none" xmlns="http://www.w3.org/2000/svg">
<path d="M15 6C15 4.34315 13.6569 3 12 3C10.3431 3 9 4.34315 9 6V10C9 11.6569 10.3431 13 12 13C13.6569 13 15 11.6569 15 10V6Z" stroke="black" stroke-linecap="round" stroke-linejoin="round"/>
<path d="M5 12C5 13.8565 5.7375 15.637 7.05025 16.9497C8.36301 18.2625 10.1435 19 12 19C13.8565 19 15.637 18.2625 16.9497 16.9497C18.2625 15.637 19 13.8565 19 12" stroke="black" stroke-linecap="round" stroke-linejoin="round"/>
<path d="M12 19V22" stroke="black" stroke-linecap="round" stroke-linejoin="round"/>
<path d="M8 22H16" stroke="black" stroke-linecap="round" stroke-linejoin="round"/>
</svg>
