<svg width="24" height="24" viewBox="0 0 24 24" fill="none" xmlns="http://www.w3.org/2000/svg">
<path d="M21.44 11.0503L14.37 18.1203C13.427 19.031 12.164 19.535 10.853 19.5236C9.54205 19.5122 8.28799 18.9864 7.36095 18.0594C6.43391 17.1323 5.90807 15.8782 5.89667 14.5673C5.88528 13.2563 6.38925 11.9933 7.30004 11.0503L14.37 3.98026C15.0265 3.32385 15.9167 2.95508 16.845 2.95508C17.3047 2.95508 17.7598 3.04561 18.1845 3.22151C18.6092 3.39741 18.995 3.65524 19.32 3.98026C19.6451 4.30528 19.9029 4.69114 20.0788 5.1158C20.2547 5.54046 20.3452 5.99561 20.3452 6.45526C20.3452 6.91491 20.2547 7.37006 20.0788 7.79472C19.9029 8.21938 19.6451 8.60524 19.32 8.93026L11.54 16.7103" stroke="#BBB7B7" stroke-linecap="round" stroke-linejoin="round"/>
</svg>
