<svg width="24" height="24" viewBox="0 0 24 24" fill="none" xmlns="http://www.w3.org/2000/svg">
<path d="M19.5436 12.0952L12.4736 19.1652C11.5305 20.076 10.2675 20.5799 8.95655 20.5686C7.64557 20.5572 6.39151 20.0313 5.46447 19.1043C4.53743 18.1772 4.01158 16.9232 4.00019 15.6122C3.9888 14.3012 4.49277 13.0382 5.40356 12.0952L12.4736 5.02518C13.13 4.36877 14.0203 4 14.9486 4C15.4082 4 15.8634 4.09053 16.288 4.26644C16.7127 4.44234 17.0985 4.70016 17.4236 5.02518C17.7486 5.3502 18.0064 5.73606 18.1823 6.16072C18.3582 6.58538 18.4487 7.04053 18.4487 7.50018C18.4487 7.95983 18.3582 8.41498 18.1823 8.83964C18.0064 9.2643 17.7486 9.65016 17.4236 9.97518L9.64356 17.7552" stroke="black" stroke-width="1.5" stroke-linecap="round" stroke-linejoin="round"/>
</svg>
