<svg width="30" height="39" viewBox="0 0 30 39" fill="none" xmlns="http://www.w3.org/2000/svg">
<path d="M1.5 1.5H18.5L19.5 11L28.5 11.7639V37.5H1.5V1.5Z" fill="#FF4B7E"/>
<path d="M7 1.125H18.172C19.2328 1.12523 20.25 1.55559 21 2.32142L27.828 9.29167C28.5782 10.0573 28.9998 11.0957 29 12.1786V35.8333C29 36.3748 28.7893 36.8941 28.4142 37.277C28.0391 37.6599 27.5304 37.875 27 37.875H3C2.46957 37.875 1.96086 37.6599 1.58579 37.277C1.21071 36.8941 1 36.3748 1 35.8333V3.16667C1 2.62518 1.21071 2.10588 1.58579 1.72299C1.96086 1.3401 2.46957 1.125 3 1.125H7Z" fill="white" fill-opacity="0.19" stroke="#111827" stroke-linecap="round" stroke-linejoin="round"/>
<path d="M19 1.125V9.29167C19 9.83315 19.2107 10.3525 19.5858 10.7353C19.9609 11.1182 20.4696 11.3333 21 11.3333H29" stroke="#111827" stroke-linecap="round" stroke-linejoin="round"/>
<path d="M6.17853 26V18.7273H8.63592C9.20647 18.7273 9.67285 18.8303 10.0351 19.0362C10.3997 19.2398 10.6695 19.5156 10.8447 19.8636C11.0199 20.2116 11.1075 20.5999 11.1075 21.0284C11.1075 21.4569 11.0199 21.8464 10.8447 22.1967C10.6719 22.5471 10.4044 22.8265 10.0422 23.0348C9.67995 23.2408 9.21594 23.3438 8.65012 23.3438H6.88876V22.5625H8.62172C9.01234 22.5625 9.32602 22.495 9.56277 22.3601C9.79951 22.2251 9.97115 22.0429 10.0777 21.8132C10.1866 21.5812 10.241 21.3196 10.241 21.0284C10.241 20.7372 10.1866 20.4768 10.0777 20.2472C9.97115 20.0175 9.79833 19.8376 9.55922 19.7074C9.32011 19.5748 9.00287 19.5085 8.60751 19.5085H7.05922V26H6.17853ZM14.7705 26H12.5262V18.7273H14.8699C15.5754 18.7273 16.1791 18.8729 16.681 19.1641C17.1829 19.4529 17.5676 19.8684 17.8351 20.4105C18.1027 20.9503 18.2364 21.5966 18.2364 22.3494C18.2364 23.107 18.1015 23.7592 17.8316 24.3061C17.5617 24.8506 17.1687 25.2696 16.6526 25.5632C16.1365 25.8544 15.5091 26 14.7705 26ZM13.4069 25.2188H14.7137C15.315 25.2188 15.8134 25.1027 16.2087 24.8707C16.6041 24.6387 16.8988 24.3085 17.093 23.88C17.2871 23.4515 17.3841 22.9413 17.3841 22.3494C17.3841 21.7623 17.2883 21.2569 17.0965 20.8331C16.9047 20.407 16.6183 20.0803 16.2371 19.853C15.856 19.6233 15.3813 19.5085 14.8131 19.5085H13.4069V25.2188ZM19.7137 26V18.7273H24.0745V19.5085H20.5944V21.9659H23.7478V22.7472H20.5944V26H19.7137Z" fill="white"/>
</svg>
