<svg width="50" height="50" viewBox="0 0 50 50" fill="none" xmlns="http://www.w3.org/2000/svg">
<path d="M25.0005 15.0835C27.0254 15.0837 28.6665 16.7256 28.6665 18.7505C28.6663 20.7753 27.0253 22.4163 25.0005 22.4165C22.9756 22.4165 21.3337 20.7754 21.3335 18.7505C21.3335 16.7254 22.9754 15.0835 25.0005 15.0835Z" stroke="#222222" stroke-linecap="round"/>
<path d="M32.2412 16.9168C32.7275 16.0747 33.5283 15.4601 34.4677 15.2084C35.407 14.9567 36.4078 15.0885 37.25 15.5747C38.0922 16.061 38.7067 16.8618 38.9584 17.8012C39.2101 18.7405 39.0783 19.7413 38.5921 20.5835C38.1059 21.4257 37.305 22.0402 36.3657 22.2919C35.4263 22.5436 34.4255 22.4118 33.5833 21.9256C32.7412 21.4394 32.1266 20.6385 31.8749 19.6992C31.6232 18.7598 31.755 17.759 32.2412 16.9168L32.2412 16.9168Z" stroke="#222222"/>
<path d="M11.4077 16.9168C11.894 16.0747 12.6948 15.4601 13.6342 15.2084C14.5735 14.9567 15.5743 15.0885 16.4165 15.5747C17.2587 16.061 17.8732 16.8618 18.1249 17.8012C18.3766 18.7405 18.2448 19.7413 17.7586 20.5835C17.2724 21.4257 16.4715 22.0402 15.5322 22.2919C14.5928 22.5436 13.592 22.4118 12.7498 21.9256C11.9077 21.4394 11.2931 20.6385 11.0414 19.6992C10.7898 18.7598 10.9215 17.759 11.4077 16.9168L11.4077 16.9168Z" stroke="#222222"/>
<path d="M34.3755 26.042L34.3755 25.542H34.3755V26.042ZM42.6245 33.3809L43.1199 33.313L43.1199 33.3128L42.6245 33.3809ZM41.7085 34.375V34.875H41.7086L41.7085 34.375ZM32.2183 33.3799L32.7147 33.3204L32.7147 33.3202L32.2183 33.3799ZM29.3755 27.4727L29.0847 27.0659L28.5528 27.4461L29.0591 27.8598L29.3755 27.4727ZM34.3755 26.042L34.3755 26.542C37.4906 26.5421 39.3305 27.7537 40.4421 29.1887C41.5727 30.6482 41.9828 32.3837 42.1292 33.4489L42.6245 33.3809L43.1199 33.3128C42.9625 32.1674 42.5164 30.2335 41.2327 28.5763C39.9299 26.8946 37.7971 25.5421 34.3755 25.542L34.3755 26.042ZM42.6245 33.3809L42.1291 33.4487C42.1579 33.6586 41.9958 33.875 41.7084 33.875L41.7085 34.375L41.7086 34.875C42.5254 34.8749 43.241 34.197 43.1199 33.313L42.6245 33.3809ZM41.7085 34.375V33.875H31.2915V34.375V34.875H41.7085V34.375ZM31.2915 34.375V34.875C32.1098 34.875 32.82 34.1985 32.7147 33.3204L32.2183 33.3799L31.7218 33.4394C31.748 33.6576 31.5775 33.875 31.2915 33.875V34.375ZM32.2183 33.3799L32.7147 33.3202C32.5348 31.8248 31.9117 28.8993 29.6919 27.0855L29.3755 27.4727L29.0591 27.8598C30.9624 29.415 31.5483 31.9973 31.7218 33.4396L32.2183 33.3799ZM29.3755 27.4727L29.6662 27.8794C30.7637 27.095 32.2748 26.542 34.3755 26.542V26.042V25.542C32.0882 25.542 30.3689 26.1481 29.0847 27.0659L29.3755 27.4727Z" fill="#222222"/>
<path d="M15.625 26.042L15.625 25.542H15.625V26.042ZM20.624 27.4717L20.9404 27.8589L21.4468 27.4451L20.9147 27.0649L20.624 27.4717ZM17.7812 33.3799L17.2848 33.3202L17.2848 33.3204L17.7812 33.3799ZM18.708 34.375V34.875L18.7081 33.875L18.708 34.375ZM7.375 33.3809L6.87965 33.3128L6.87962 33.313L7.375 33.3809ZM15.625 26.042L15.625 26.542C17.7253 26.542 19.236 27.0944 20.3333 27.8785L20.624 27.4717L20.9147 27.0649C19.6306 26.1473 17.9117 25.542 15.625 25.542L15.625 26.042ZM20.624 27.4717L20.3077 27.0845C18.0875 28.8983 17.4647 31.8249 17.2848 33.3202L17.7812 33.3799L18.2777 33.4396C18.4512 31.9972 19.0369 29.414 20.9404 27.8589L20.624 27.4717ZM17.7812 33.3799L17.2848 33.3204C17.1796 34.1985 17.8898 34.8749 18.708 34.875L18.708 34.375L18.7081 33.875C18.422 33.875 18.2516 33.6575 18.2777 33.4394L17.7812 33.3799ZM18.708 34.375V33.875H8.29199V34.375V34.875H18.708V34.375ZM8.29199 34.375V33.875C8.00397 33.875 7.84172 33.658 7.87038 33.4487L7.375 33.3809L6.87962 33.313C6.75848 34.1977 7.47572 34.875 8.29199 34.875V34.375ZM7.375 33.3809L7.87035 33.4489C8.0167 32.3837 8.42692 30.6482 9.55774 29.1887C10.6696 27.7536 12.5097 26.542 15.625 26.542V26.042V25.542C12.2032 25.542 10.0702 26.8945 8.76724 28.5762C7.48326 30.2334 7.03703 32.1674 6.87965 33.3128L7.375 33.3809Z" fill="#222222"/>
<path d="M25.0002 26.0415C30.7193 26.0415 31.9527 31.1681 32.2187 33.3793C32.2847 33.9276 31.8441 34.3748 31.2918 34.3748H18.7085C18.1562 34.3748 17.7157 33.9276 17.7816 33.3793C18.0476 31.1681 19.281 26.0415 25.0002 26.0415Z" stroke="#222222" stroke-linecap="round"/>
<path d="M38.5415 44.7915H43.2915C44.1199 44.7915 44.7915 44.1199 44.7915 43.2915V38.5415" stroke="#222222" stroke-linecap="round"/>
<path d="M38.5415 5.2085H43.2915C44.1199 5.2085 44.7915 5.88007 44.7915 6.7085V11.4585" stroke="#222222" stroke-linecap="round"/>
<path d="M11.4585 44.7915H6.7085C5.88007 44.7915 5.2085 44.1199 5.2085 43.2915V38.5415" stroke="#222222" stroke-linecap="round"/>
<path d="M11.4585 5.2085H6.7085C5.88007 5.2085 5.2085 5.88007 5.2085 6.7085V11.4585" stroke="#222222" stroke-linecap="round"/>
</svg>
