<svg width="24" height="24" viewBox="0 0 24 24" fill="none" xmlns="http://www.w3.org/2000/svg">
<circle cx="12" cy="9" r="1.5" stroke="#BBB7B7" stroke-linecap="round"/>
<path d="M15.701 8.25C15.8999 7.90547 16.2275 7.65408 16.6118 7.55111C16.996 7.44815 17.4055 7.50205 17.75 7.70096C18.0945 7.89987 18.3459 8.2275 18.4489 8.61177C18.5519 8.99604 18.498 9.40547 18.299 9.75C18.1001 10.0945 17.7725 10.3459 17.3882 10.4489C17.004 10.5519 16.5945 10.498 16.25 10.299C15.9055 10.1001 15.6541 9.7725 15.5511 9.38823C15.4481 9.00396 15.502 8.59453 15.701 8.25L15.701 8.25Z" stroke="#BBB7B7"/>
<path d="M5.70096 8.25C5.89987 7.90547 6.2275 7.65408 6.61177 7.55111C6.99604 7.44815 7.40547 7.50205 7.75 7.70096C8.09453 7.89987 8.34592 8.2275 8.44889 8.61177C8.55185 8.99604 8.49795 9.40547 8.29904 9.75C8.10013 10.0945 7.7725 10.3459 7.38823 10.4489C7.00396 10.5519 6.59453 10.498 6.25 10.299C5.90547 10.1001 5.65408 9.7725 5.55111 9.38823C5.44815 9.00396 5.50205 8.59453 5.70096 8.25L5.70096 8.25Z" stroke="#BBB7B7"/>
<path d="M16.5005 12.5L16.5005 12H16.5005V12.5ZM20.3638 15.5127L20.8501 15.3964L20.85 15.3962L20.3638 15.5127ZM19.5005 16.5L19.5005 17L19.5007 17L19.5005 16.5ZM14.5005 16.5L14.5003 16L14.5005 17V16.5ZM15.3804 15.5098L15.8697 15.407L15.8697 15.4069L15.3804 15.5098ZM14.1001 13.1865L13.8094 12.7797L13.2773 13.16L13.7838 13.5737L14.1001 13.1865ZM16.5005 12.5L16.5005 13C17.7263 13.0001 18.4897 13.4089 18.9822 13.912C19.4883 14.429 19.7474 15.0863 19.8775 15.6292L20.3638 15.5127L20.85 15.3962C20.6962 14.7546 20.3755 13.9057 19.6968 13.2125C19.0046 12.5054 17.9782 12.0001 16.5005 12L16.5005 12.5ZM20.3638 15.5127L19.8775 15.629C19.901 15.7274 19.8755 15.807 19.8168 15.8718C19.7528 15.9424 19.6414 15.9999 19.5003 16L19.5005 16.5L19.5007 17C20.3001 16.9997 21.0703 16.3171 20.8501 15.3964L20.3638 15.5127ZM19.5005 16.5V16H14.5005V16.5V17H19.5005V16.5ZM14.5005 16.5L14.5007 17C15.3044 16.9997 16.0614 16.3192 15.8697 15.407L15.3804 15.5098L14.8911 15.6126C14.9127 15.7156 14.8843 15.8011 14.8216 15.8694C14.7544 15.9426 14.6412 15.9999 14.5003 16L14.5005 16.5ZM15.3804 15.5098L15.8697 15.4069C15.7084 14.6397 15.3295 13.5452 14.4164 12.7993L14.1001 13.1865L13.7838 13.5737C14.4367 14.1071 14.7485 14.9341 14.8911 15.6126L15.3804 15.5098ZM14.1001 13.1865L14.3908 13.5933C14.869 13.2515 15.5406 13 16.5005 13V12.5V12C15.3542 12 14.4743 12.3045 13.8094 12.7797L14.1001 13.1865Z" fill="#BBB7B7"/>
<path d="M7.49951 12.5L7.49951 12L7.49949 12L7.49951 12.5ZM9.89893 13.1855L10.2152 13.5728L10.7219 13.1589L10.1895 12.7786L9.89893 13.1855ZM8.61963 15.5098L8.13032 15.4069L8.13032 15.4069L8.61963 15.5098ZM9.49951 16.5V17L9.49965 16L9.49951 16.5ZM4.49951 16.5L4.49935 17H4.49951V16.5ZM3.63623 15.5127L3.15 15.3962L3.14995 15.3964L3.63623 15.5127ZM7.49951 12.5V13C8.45894 13 9.13032 13.2511 9.60835 13.5924L9.89893 13.1855L10.1895 12.7786C9.52457 12.3038 8.64498 12 7.49951 12V12.5ZM9.89893 13.1855L9.5826 12.7983C8.66924 13.5445 8.29144 14.6403 8.13032 15.4069L8.61963 15.5098L9.10894 15.6126C9.25167 14.9335 9.56266 14.1059 10.2152 13.5728L9.89893 13.1855ZM8.61963 15.5098L8.13032 15.4069C7.9386 16.3192 8.69553 16.9998 9.49938 17L9.49951 16.5L9.49965 16C9.35867 16 9.24555 15.9427 9.17835 15.8694C9.11569 15.8011 9.08728 15.7157 9.10894 15.6126L8.61963 15.5098ZM9.49951 16.5V16H4.49951V16.5V17H9.49951V16.5ZM4.49951 16.5L4.49967 16C4.35849 16 4.24719 15.9424 4.18319 15.8718C4.12453 15.8071 4.09897 15.7274 4.12251 15.629L3.63623 15.5127L3.14995 15.3964C2.9297 16.3171 3.69983 16.9997 4.49935 17L4.49951 16.5ZM3.63623 15.5127L4.12246 15.6292C4.25259 15.0863 4.51168 14.429 5.01777 13.912C5.51032 13.4089 6.27367 13.0001 7.49954 13L7.49951 12.5L7.49949 12C6.02175 12.0001 4.99541 12.5054 4.30319 13.2125C3.62451 13.9057 3.30376 14.7547 3.15 15.3962L3.63623 15.5127Z" fill="#BBB7B7"/>
<path d="M12 12.5C14.3642 12.5 15.1314 14.3251 15.3804 15.5097C15.494 16.0501 15.0523 16.5 14.5 16.5H9.5C8.94772 16.5 8.50601 16.0501 8.61961 15.5097C8.86859 14.3251 9.63581 12.5 12 12.5Z" stroke="#BBB7B7" stroke-linecap="round"/>
<path d="M18.5 21.5H20C20.8284 21.5 21.5 20.8284 21.5 20V18.5" stroke="#BBB7B7" stroke-linecap="round"/>
<path d="M18.5 2.5H20C20.8284 2.5 21.5 3.17157 21.5 4V5.5" stroke="#BBB7B7" stroke-linecap="round"/>
<path d="M5.5 21.5H4C3.17157 21.5 2.5 20.8284 2.5 20V18.5" stroke="#BBB7B7" stroke-linecap="round"/>
<path d="M5.5 2.5H4C3.17157 2.5 2.5 3.17157 2.5 4V5.5" stroke="#BBB7B7" stroke-linecap="round"/>
</svg>
