<svg width="24" height="24" viewBox="0 0 24 24" fill="none" xmlns="http://www.w3.org/2000/svg">
<path d="M22 12C22 13.1046 21.1046 14 20 14C18.3432 14 17 12.6569 17 11V7C17 5.3431 18.3432 4 20 4C21.1046 4 22 4.8954 22 6V12Z" fill="black" stroke="black" stroke-linecap="round" stroke-linejoin="round"/>
<path d="M8.5213 16.1937L8.7876 15.3337C9.0058 14.6289 9.1149 14.2765 9.031 13.9982C8.9631 13.7731 8.8141 13.579 8.611 13.4513C8.36 13.2935 7.9803 13.2935 7.2209 13.2935H6.8169C4.2468 13.2935 2.9618 13.2935 2.3548 12.5327C2.2855 12.4458 2.2238 12.3533 2.1704 12.2563C1.7035 11.4079 2.2343 10.2649 3.296 7.9789C4.2703 5.8811 4.7575 4.8322 5.662 4.2148C5.7495 4.1551 5.8395 4.0987 5.9317 4.0459C6.884 3.5 8.0638 3.5 10.4236 3.5H10.9354C13.7943 3.5 15.2237 3.5 16.1119 4.3605C17 5.2211 17 6.6061 17 9.3761V10.3497C17 11.8054 17 12.5332 16.7417 13.1994C16.4833 13.8656 15.9886 14.4134 14.9993 15.5089L10.9079 20.0394C10.8053 20.1531 10.754 20.2099 10.7087 20.2492C10.2865 20.6167 9.6348 20.5754 9.2656 20.1576C9.226 20.1129 9.1828 20.0501 9.0964 19.9245C8.9612 19.7279 8.8936 19.6297 8.8346 19.5323C8.3072 18.6609 8.1476 17.6256 8.3892 16.6428C8.4162 16.5331 8.4512 16.4199 8.5213 16.1937Z" fill="black" stroke="black" stroke-linecap="round" stroke-linejoin="round"/>
</svg>
