<svg width="50" height="50" viewBox="0 0 50 50" fill="none" xmlns="http://www.w3.org/2000/svg">
<path d="M36.4585 7.2915H40.9918C42.7832 7.2915 43.6788 7.2915 44.2353 7.848C44.7918 8.4045 44.7918 9.30017 44.7918 11.0915V15.6248" stroke="#222222" stroke-linecap="round"/>
<path d="M36.4585 42.7085H40.9918C42.7832 42.7085 43.6788 42.7085 44.2353 42.152C44.7918 41.5955 44.7918 40.6998 44.7918 38.9085V34.3752" stroke="#222222" stroke-linecap="round"/>
<path d="M13.5415 7.2915H9.00817C7.21683 7.2915 6.32117 7.2915 5.76467 7.848C5.20817 8.4045 5.20817 9.30017 5.20817 11.0915V15.6248" stroke="#222222" stroke-linecap="round"/>
<path d="M13.5415 42.7085H9.00817C7.21683 42.7085 6.32117 42.7085 5.76467 42.152C5.20817 41.5955 5.20817 40.6998 5.20817 38.9085V34.3752" stroke="#222222" stroke-linecap="round"/>
<path d="M14.5857 32.5766C15.6289 31.0708 17.137 29.81 18.9668 28.9296C20.7966 28.0492 22.8777 27.5835 25 27.5835C27.1223 27.5835 29.2034 28.0492 31.0332 28.9296C32.863 29.81 34.3711 31.0708 35.4143 32.5766" stroke="#222222" stroke-linecap="round"/>
<circle cx="25" cy="18.75" r="5.75" stroke="#222222" stroke-linecap="round"/>
</svg>
