<svg width="17" height="19" viewBox="0 0 17 19" fill="none" xmlns="http://www.w3.org/2000/svg">
<path d="M16.44 9.05026L9.37004 16.1203C8.42703 17.031 7.16402 17.535 5.85304 17.5236C4.54205 17.5122 3.28799 16.9864 2.36095 16.0594C1.43391 15.1323 0.908065 13.8782 0.896673 12.5673C0.885281 11.2563 1.38925 9.99327 2.30004 9.05026L9.37004 1.98026C10.0265 1.32385 10.9167 0.955078 11.845 0.955078C12.3047 0.955078 12.7598 1.04561 13.1845 1.22151C13.6092 1.39741 13.995 1.65524 14.32 1.98026C14.6451 2.30528 14.9029 2.69114 15.0788 3.1158C15.2547 3.54046 15.3452 3.99561 15.3452 4.45526C15.3452 4.91491 15.2547 5.37006 15.0788 5.79472C14.9029 6.21938 14.6451 6.60524 14.32 6.93026L6.54004 14.7103" stroke="black" stroke-linecap="round" stroke-linejoin="round"/>
</svg>
