<?xml version="1.0" standalone="no"?>
<!DOCTYPE svg PUBLIC "-//W3C//DTD SVG 20010904//EN"
 "http://www.w3.org/TR/2001/REC-SVG-20010904/DTD/svg10.dtd">
<svg version="1.0" xmlns="http://www.w3.org/2000/svg"
 width="1024.000000pt" height="1024.000000pt" viewBox="0 0 1024.000000 1024.000000"
 preserveAspectRatio="xMidYMid meet">

<g transform="translate(0.000000,1024.000000) scale(0.100000,-0.100000)"
fill="#000000" stroke="none">
<path d="M6893 8215 c-78 -21 -130 -51 -191 -108 -63 -61 -97 -115 -123 -198
-32 -104 -20 -239 30 -338 34 -66 116 -146 186 -182 l66 -34 -3 -400 -3 -400
-28 -51 c-19 -33 -130 -152 -333 -355 l-304 -304 0 333 c0 371 -6 420 -65 547
-83 180 -238 314 -442 384 -118 40 -231 42 -1728 39 l-1430 -3 -78 -22 c-265
-75 -462 -272 -527 -527 -20 -77 -20 -110 -20 -1530 0 -1589 -3 -1504 60
-1642 68 -151 183 -269 334 -343 168 -82 21 -76 1746 -76 1715 0 1578 -6 1739
71 159 74 278 188 346 329 54 112 65 175 65 393 l0 192 548 0 c509 0 550 -2
587 -19 45 -21 89 -61 113 -106 15 -26 17 -72 20 -320 l2 -290 -51 -24 c-67
-31 -151 -118 -189 -194 -82 -170 -53 -362 75 -496 177 -185 453 -188 637 -7
142 139 170 375 64 540 -44 68 -116 132 -182 163 l-54 24 0 267 c-1 306 -11
389 -60 481 -41 77 -160 193 -232 226 -119 54 -128 55 -725 55 l-553 0 0 205
0 205 838 0 837 0 18 -44 c30 -72 118 -160 200 -201 271 -134 589 28 638 324
44 267 -167 511 -442 511 -164 0 -325 -99 -391 -241 l-23 -48 -837 -1 -838 0
0 255 0 255 798 0 797 1 66 22 c178 61 299 186 344 358 11 39 15 115 15 272 0
188 2 217 15 217 33 0 122 55 175 109 284 284 47 771 -360 737 -240 -19 -418
-238 -397 -487 11 -134 104 -274 223 -336 l54 -28 0 -198 c0 -215 -6 -245 -58
-301 -15 -16 -49 -39 -77 -52 l-50 -24 -589 0 -590 0 255 258 c356 359 339
313 339 903 l0 397 55 27 c86 42 156 113 201 202 35 71 39 87 42 175 5 113
-16 190 -73 275 -101 151 -304 226 -482 178z m183 -284 c63 -29 89 -72 89
-151 0 -77 -24 -119 -85 -150 -51 -26 -95 -25 -150 3 -52 26 -90 88 -90 148 0
56 39 119 90 146 52 28 91 29 146 4z m1056 -993 c71 -21 128 -116 112 -185
-10 -44 -53 -100 -89 -117 -123 -59 -260 54 -225 185 14 52 55 96 105 114 50
18 49 18 97 3z m-2490 -140 c122 -61 199 -151 238 -277 19 -61 20 -100 20
-1450 0 -1142 -3 -1395 -14 -1437 -33 -126 -121 -231 -245 -292 l-75 -37
-1500 -3 c-1485 -2 -1502 -2 -1568 18 -130 39 -246 156 -288 289 -20 62 -20
90 -20 1441 0 881 4 1397 10 1431 29 157 149 289 308 340 54 17 127 18 1558
16 l1500 -2 76 -37z m2725 -1814 c54 -36 77 -77 77 -139 0 -95 -71 -165 -167
-165 -110 0 -187 120 -146 227 35 94 151 132 236 77z m-659 -2001 c101 -75 97
-210 -8 -281 -29 -20 -44 -23 -88 -20 -59 5 -95 27 -129 78 -48 70 -20 184 56
229 46 27 128 25 169 -6z"/>
<path d="M3200 6376 c-214 -46 -370 -242 -370 -466 0 -267 206 -470 478 -470
285 0 516 262 473 536 -42 274 -310 459 -581 400z"/>
</g>
</svg>
